<?xml version="1.0" standalone="no"?>
<!DOCTYPE svg PUBLIC "-//W3C//DTD SVG 20010904//EN"
 "http://www.w3.org/TR/2001/REC-SVG-20010904/DTD/svg10.dtd">
<svg version="1.0" xmlns="http://www.w3.org/2000/svg"
 width="256.000000pt" height="256.000000pt" viewBox="0 0 256.000000 256.000000"
 preserveAspectRatio="xMidYMid meet">
<metadata>
Created by potrace 1.11, written by Peter Selinger 2001-2013
</metadata>
<g transform="translate(0.000000,256.000000) scale(0.100000,-0.100000)"
fill="#000000" stroke="none">
<path d="M629 1921 c-17 -18 -29 -40 -29 -56 0 -18 -6 -29 -20 -32 -11 -3 -20
-9 -20 -13 0 -4 9 -10 20 -13 19 -5 20 -14 20 -126 0 -101 2 -121 15 -121 13
0 15 21 15 125 l0 125 35 0 c19 0 35 5 35 10 0 6 -16 10 -35 10 -31 0 -35 3
-35 25 0 35 36 68 66 62 31 -6 41 9 15 22 -31 17 -51 13 -82 -18z"/>
<path d="M472 1918 c5 -32 28 -35 28 -4 0 17 -5 26 -16 26 -10 0 -14 -7 -12
-22z"/>
<path d="M170 1745 l0 -185 125 0 c104 0 125 2 125 15 0 12 -19 15 -110 15
l-110 0 0 170 c0 144 -2 170 -15 170 -13 0 -15 -27 -15 -185z"/>
<path d="M1640 1715 l0 -165 -750 0 -750 0 0 -275 0 -275 333 0 332 0 -3 -190
-3 -190 106 0 c98 0 105 1 105 20 0 18 -7 20 -85 20 l-85 0 0 65 0 65 71 0
c62 0 70 2 67 18 -3 14 -16 18 -71 20 l-67 3 0 64 0 65 85 0 c78 0 85 2 85 20
0 19 7 20 154 20 l153 0 -5 -25 c-3 -21 0 -25 18 -25 18 0 21 4 18 25 l-5 25
148 0 149 0 2 -166 3 -165 445 296 c245 163 445 302 445 308 0 8 -878 605
-892 607 -2 0 -3 -74 -3 -165z"/>
<path d="M804 1821 c-51 -31 -74 -68 -74 -120 0 -84 56 -141 139 -141 42 0
107 42 95 62 -4 5 -16 0 -29 -12 -31 -29 -88 -37 -121 -16 -26 17 -56 74 -48
88 3 5 56 8 119 8 l113 0 -8 33 c-10 48 -36 83 -75 101 -43 21 -73 20 -111 -3z
m127 -40 c16 -16 29 -39 29 -50 0 -20 -5 -21 -100 -21 -108 0 -115 4 -83 50
27 39 45 49 86 50 29 0 45 -7 68 -29z"/>
<path d="M470 1695 c0 -113 2 -135 15 -135 13 0 15 22 15 135 0 113 -2 135
-15 135 -13 0 -15 -22 -15 -135z"/>
<path d="M1110 880 c-8 -5 -23 -7 -33 -4 -16 5 -17 -6 -15 -178 3 -155 5 -183
18 -183 11 0 16 14 18 58 3 55 4 58 25 51 38 -13 71 -5 95 21 19 23 22 37 22
111 0 77 -2 87 -25 109 -25 26 -77 33 -105 15z m78 -32 c7 -7 12 -43 12 -93 0
-88 -8 -105 -50 -105 -42 0 -50 17 -50 107 0 68 3 84 18 92 23 14 55 14 70 -1z"/>
<path d="M1317 884 c-4 -4 -7 -65 -7 -136 0 -118 2 -129 18 -126 15 3 17 17
17 132 0 121 -7 151 -28 130z"/>
<path d="M1446 869 c-25 -19 -26 -25 -26 -110 0 -50 4 -99 10 -109 23 -42 117
-47 145 -6 20 27 19 66 0 66 -8 0 -15 -8 -15 -18 0 -27 -20 -42 -57 -42 -43 0
-53 21 -53 109 0 50 4 74 16 85 29 30 94 13 94 -24 0 -11 7 -20 15 -20 22 0
19 46 -5 70 -27 27 -89 27 -124 -1z"/>
</g>
</svg>
